<svg width="94" height="95" viewBox="0 0 94 95" fill="none" xmlns="http://www.w3.org/2000/svg">
<g id="Frame" clip-path="url(#clip0_250_974)">
<path id="Vector" d="M51.2401 25.6861L39.3625 5.26676L15.3672 0.602539L38.6984 43.6225L65.8443 38.146L51.2401 25.6861Z" fill="#55ACEE"/>
<path id="Vector_2" d="M69.9021 11.203L51.2402 25.686L59.8974 43.9218L63.2054 41.194L93.8974 15.8672L69.9021 11.203Z" fill="#3B88C3"/>
<path id="Vector_3" d="M59.191 45.401C59.4575 44.9616 59.6667 44.4793 59.7706 43.9448C60.2387 41.5366 58.6641 39.2021 56.2558 38.734L41.7125 35.9071C39.302 35.4385 36.9698 37.0136 36.5016 39.4218C36.3978 39.9563 36.4089 40.4814 36.4936 40.9891C28.6123 43.5908 22.3241 50.2489 20.6281 58.9745C18.128 71.8246 26.5212 84.2681 39.3718 86.766C52.2224 89.2639 64.6658 80.8707 67.1637 68.0201C68.8598 59.2945 65.5237 50.7657 59.191 45.401Z" fill="#FFAC33"/>
<path id="Vector_4" d="M49.8082 49.4042L46.054 48.6744L39.1948 52.1676C39.0489 52.266 38.8631 52.5695 38.8318 52.7309L38.3323 55.3006C38.2534 55.7063 38.5094 56.1364 38.9173 56.2157L42.8329 56.9768L39.2652 75.331C39.1855 75.7411 39.4419 76.169 39.8891 76.256L44.4176 77.1362C44.8234 77.2151 45.2218 76.9122 45.3011 76.5043L50.391 50.3188C50.4699 49.9131 50.2161 49.4835 49.8082 49.4042Z" fill="#9E5200"/>
</g>
<defs>
<clipPath id="clip0_250_974">
<rect width="80" height="80" fill="white" transform="translate(15.3672 0.602539) rotate(11)"/>
</clipPath>
</defs>
</svg>
