<svg width="108" height="108" viewBox="0 0 108 108" fill="none" xmlns="http://www.w3.org/2000/svg">
<g filter="url(#filter0_d_673_149)">
<rect x="4" width="100" height="100" rx="20" fill="#FDFF8A" shape-rendering="crispEdges"/>
<path d="M32.875 85C31.5344 85 30.3867 84.5104 29.432 83.5313C28.4773 82.5521 28 81.375 28 80V43.8333C28 42.4583 28.4773 41.2813 29.432 40.3021C30.3867 39.3229 31.5344 38.8333 32.875 38.8333H38.5625V30.8333C38.5625 26.4528 40.0685 22.7188 43.0805 19.6313C46.0925 16.5438 49.7352 15 54.0086 15C58.282 15 61.9219 16.5438 64.9281 19.6313C67.9344 22.7188 69.4375 26.4528 69.4375 30.8333V38.8333H75.125C76.4656 38.8333 77.6133 39.3229 78.568 40.3021C79.5227 41.2813 80 42.4583 80 43.8333V80C80 81.375 79.5227 82.5521 78.568 83.5313C77.6133 84.5104 76.4656 85 75.125 85H32.875ZM32.875 80H75.125V43.8333H32.875V80ZM54.0136 68.3333C55.7379 68.3333 57.2094 67.7214 58.4281 66.4974C59.6469 65.2735 60.2562 63.8021 60.2562 62.0833C60.2562 60.4167 59.6423 58.9028 58.4145 57.5417C57.1866 56.1806 55.7106 55.5 53.9863 55.5C52.2621 55.5 50.7906 56.1806 49.5719 57.5417C48.3531 58.9028 47.7437 60.4306 47.7437 62.125C47.7437 63.8194 48.3577 65.2778 49.5855 66.5C50.8134 67.7222 52.2894 68.3333 54.0136 68.3333ZM43.4375 38.8333H64.5625V30.8333C64.5625 27.8241 63.5365 25.2662 61.4846 23.1597C59.4326 21.0532 56.9409 20 54.0096 20C51.0782 20 48.5833 21.0532 46.525 23.1597C44.4667 25.2662 43.4375 27.8241 43.4375 30.8333V38.8333Z" fill="black"/>
</g>
<defs>
<filter id="filter0_d_673_149" x="0" y="0" width="108" height="108" filterUnits="userSpaceOnUse" color-interpolation-filters="sRGB">
<feFlood flood-opacity="0" result="BackgroundImageFix"/>
<feColorMatrix in="SourceAlpha" type="matrix" values="0 0 0 0 0 0 0 0 0 0 0 0 0 0 0 0 0 0 127 0" result="hardAlpha"/>
<feOffset dy="4"/>
<feGaussianBlur stdDeviation="2"/>
<feComposite in2="hardAlpha" operator="out"/>
<feColorMatrix type="matrix" values="0 0 0 0 0 0 0 0 0 0 0 0 0 0 0 0 0 0 0.25 0"/>
<feBlend mode="normal" in2="BackgroundImageFix" result="effect1_dropShadow_673_149"/>
<feBlend mode="normal" in="SourceGraphic" in2="effect1_dropShadow_673_149" result="shape"/>
</filter>
</defs>
</svg>
